PathFileType	4	(X/Y/Z)	RBDS015static.trc
DataRate	CameraRate	NumFrames	NumMarkers	Units	OrigDataRate	OrigDataStartFrame	OrigNumFrames
150.000000	150.000000	4	48	mm	150.000000	131	150
Frame#	Time	L.Ankle			L.Ankle.Medial			L.ASIS			L.GTR			L.Heel.Bottom			L.Heel.Lateral			L.Heel.Top			L.HF			L.Iliac.Crest			L.Knee			L.Knee.Medial			L.MT1			L.MT2			L.MT5			L.PSIS			L.Shank.Bottom.Lateral			L.Shank.Bottom.Medial			L.Shank.Top.Lateral			L.Shank.Top.Medial			L.Thigh.Bottom.Lateral			L.Thigh.Bottom.Medial			L.Thigh.Top.Lateral			L.Thigh.Top.Medial			L.TT			R.Ankle			R.Ankle.Medial			R.ASIS			R.GTR			R.Heel.Bottom			R.Heel.Lateral			R.Heel.Top			R.HF			R.Iliac.Crest			R.Knee			R.Knee.Medial			R.MT1			R.MT2			R.MT5			R.PSIS			R.Shank.Bottom.Lateral			R.Shank.Bottom.Medial			R.Shank.Top.Lateral			R.Shank.Top.Medial			R.Thigh.Bottom.Lateral			R.Thigh.Bottom.Medial			R.Thigh.Top.Lateral			R.Thigh.Top.Medial			R.TT			
		X1	Y1	Z1	X2	Y2	Z2	X3	Y3	Z3	X4	Y4	Z4	X5	Y5	Z5	X6	Y6	Z6	X7	Y7	Z7	X8	Y8	Z8	X9	Y9	Z9	X10	Y10	Z10	X11	Y11	Z11	X12	Y12	Z12	X13	Y13	Z13	X14	Y14	Z14	X15	Y15	Z15	X16	Y16	Z16	X17	Y17	Z17	X18	Y18	Z18	X19	Y19	Z19	X20	Y20	Z20	X21	Y21	Z21	X22	Y22	Z22	X23	Y23	Z23	X24	Y24	Z24	X25	Y25	Z25	X26	Y26	Z26	X27	Y27	Z27	X28	Y28	Z28	X29	Y29	Z29	X30	Y30	Z30	X31	Y31	Z31	X32	Y32	Z32	X33	Y33	Z33	X34	Y34	Z34	X35	Y35	Z35	X36	Y36	Z36	X37	Y37	Z37	X38	Y38	Z38	X39	Y39	Z39	X40	Y40	Z40	X41	Y41	Z41	X42	Y42	Z42	X43	Y43	Z43	X44	Y44	Z44	X45	Y45	Z45	X46	Y46	Z46	X47	Y47	Z47	X48	Y48	Z48	

132	0.8733333333333334	699.7973022460938	107.7298049926758	1032.698120117188	714.9070434570313	118.3981628417969	1120.796142578125	817.56298828125	1081.044799804688	1094.7021484375	730.5643920898438	988.7111206054688	1049.214599609375	637.0226440429688	40.09463500976563	1081.437133789063	661.3147583007813	58.54914474487305	1040.454711914063	642.843994140625	82.53609466552734	1082.388061523438	696.1700439453125	511.7174682617188	1055.589111328125	737.1226196289063	1157.93115234375	1061.88037109375	696.962890625	571.4489135742188	1061.720458984375	702.0291748046875	556.4556274414063	1190.638793945313	843.9982299804688	61.0818977355957	1125.62451171875	853.3009643554688	70.59539031982422	1079.464111328125	817.4605102539063	48.47196578979492	1013.090087890625	643.701904296875	1122.005737304688	1178.619140625	692.39306640625	211.1666564941406	1033.342163085938	649.067626953125	205.2930603027344	1060.444458007813	683.6194458007813	291.3671875	1028.311767578125	638.55126953125	289.3146362304688	1057.106811523438	716.0271606445313	704.5880737304688	1041.224243164063	655.6181030273438	704.1524658203125	1073.068969726563	712.2569580078125	815.0528564453125	1035.739501953125	650.6431274414063	814.2664794921875	1074.673950195313	754.0487670898438	476.846435546875	1102.815185546875	692.52392578125	115.0683212280273	1412.965698242188	717.0023803710938	117.8279495239258	1326.674682617188	837.6981811523438	1074.763916015625	1323.109375	758.335693359375	989.4405517578125	1381.281494140625	633.0833740234375	41.26540756225586	1370.195068359375	660.7720336914063	61.92964172363281	1411.319702148438	641.587890625	87.94895935058594	1370.335327148438	717.48583984375	511.5647583007813	1376.034790039063	756.9080810546875	1157.74462890625	1368.522705078125	719.2982788085938	577.07666015625	1369.179809570313	733.974365234375	551.0628662109375	1242.581787109375	843.2428588867188	59.55366516113281	1326.489624023438	851.3579711914063	72.75258636474609	1375.456665039063	808.3252563476563	50.0736083984375	1441.254272460938	649.7328491210938	1121.847290039063	1270.150146484375	702.2925415039063	209.0417022705078	1408.915649414063	654.0797119140625	206.4140014648438	1381.451538085938	695.415283203125	290.3931274414063	1410.488891601563	649.4766235351563	286.8232116699219	1382.475219726563	732.9736328125	725.6986083984375	1387.951782226563	669.918701171875	722.4173583984375	1349.705688476563	721.1929931640625	835.0393676757813	1390.949096679688	663.0883178710938	832.1099243164063	1352.053588867188	778.2796630859375	486.4020080566406	1330.326782226563	
133	0.88	699.7984619140625	107.7367630004883	1032.70263671875	714.9097900390625	118.4035415649414	1120.7958984375	817.5986938476563	1081.056396484375	1094.713134765625	730.611572265625	988.7186279296875	1049.2275390625	637.0125732421875	40.10569381713867	1081.445068359375	661.3182373046875	58.55104064941406	1040.466064453125	642.8473510742188	82.54583740234375	1082.38037109375	696.1940307617188	511.71533203125	1055.602905273438	737.1505126953125	1157.940551757813	1061.883178710938	696.9889526367188	571.4562377929688	1061.728149414063	702.0496215820313	556.4697265625	1190.644897460938	843.9951171875	61.08301544189453	1125.614501953125	853.3041381835938	70.59221649169922	1079.464233398438	817.4575805664063	48.4809455871582	1013.092346191406	643.732421875	1122.007202148438	1178.625	692.39697265625	211.1723327636719	1033.344116210938	649.0726928710938	205.3060913085938	1060.44775390625	683.6346435546875	291.3728332519531	1028.31884765625	638.5701293945313	289.3225402832031	1057.1162109375	716.04931640625	704.597412109375	1041.23193359375	655.63232421875	704.1686401367188	1073.080200195313	712.2703247070313	815.0652465820313	1035.745727539063	650.6627807617188	814.2743530273438	1074.685668945313	754.0747680664063	476.8500366210938	1102.820556640625	692.5321044921875	115.0697479248047	1412.963134765625	717.0004272460938	117.8305358886719	1326.674194335938	837.7277221679688	1074.776123046875	1323.129150390625	758.35546875	989.4423828125	1381.308837890625	633.0776977539063	41.27105712890625	1370.19482421875	660.7745971679688	61.93855285644531	1411.319091796875	641.59521484375	87.94970703125	1370.340087890625	717.512451171875	511.5750732421875	1376.031005859375	756.9292602539063	1157.787719726563	1368.514892578125	719.3129272460938	577.085693359375	1369.20166015625	733.9906005859375	551.0701904296875	1242.593139648438	843.2396850585938	59.55763244628906	1326.4921875	851.361328125	72.75331115722656	1375.456909179688	808.3235473632813	50.07748413085938	1441.254638671875	649.76416015625	1121.844848632813	1270.169067382813	702.2971801757813	209.0477752685547	1408.917358398438	654.0874633789063	206.4206237792969	1381.460693359375	695.4342651367188	290.3779296875	1410.481811523438	649.4844970703125	286.83056640625	1382.473510742188	733.0007934570313	725.7039794921875	1387.953857421875	669.934814453125	722.42236328125	1349.705200195313	721.2156372070313	835.0532836914063	1390.952270507813	663.1161499023438	832.1241455078125	1352.05419921875	778.2837524414063	486.3997497558594	1330.3388671875	
134	0.8866666666666667	699.8038940429688	107.7365798950195	1032.705444335938	714.9212646484375	118.4007949829102	1120.796875	817.60986328125	1081.057861328125	1094.7236328125	730.6260986328125	988.729736328125	1049.252197265625	637.0259399414063	40.10476684570313	1081.443969726563	661.3235473632813	58.55601501464844	1040.458129882813	642.851318359375	82.54744720458984	1082.384155273438	696.20263671875	511.72216796875	1055.593872070313	737.1742553710938	1157.939697265625	1061.8916015625	697.0006713867188	571.4677124023438	1061.732177734375	702.0767822265625	556.4718017578125	1190.657348632813	843.9989013671875	61.07724761962891	1125.616088867188	853.302734375	70.59171295166016	1079.471069335938	817.4625854492188	48.4821891784668	1013.096496582031	643.7635498046875	1122.015258789063	1178.6298828125	692.4037475585938	211.1765899658203	1033.34521484375	649.0836181640625	205.3125457763672	1060.454345703125	683.6395874023438	291.3759155273438	1028.315063476563	638.5757446289063	289.3331909179688	1057.1220703125	716.0653076171875	704.5999755859375	1041.239624023438	655.658935546875	704.1657104492188	1073.095581054688	712.2902221679688	815.0631103515625	1035.754760742188	650.6898803710938	814.2796630859375	1074.688720703125	754.0928955078125	476.8491516113281	1102.824340820313	692.5333251953125	115.0792465209961	1412.96484375	717.0128173828125	117.8281784057617	1326.679077148438	837.7540283203125	1074.778930664063	1323.133178710938	758.3731689453125	989.447509765625	1381.320922851563	633.0670776367188	41.27812957763672	1370.20068359375	660.77197265625	61.9369010925293	1411.321411132813	641.5962524414063	87.9512939453125	1370.333618164063	717.5200805664063	511.5716247558594	1376.051513671875	756.9721069335938	1157.852416992188	1368.532348632813	719.333984375	577.0839233398438	1369.20166015625	734.003173828125	551.063232421875	1242.598022460938	843.238037109375	59.55439758300781	1326.490478515625	851.3576049804688	72.74485778808594	1375.455200195313	808.3238525390625	50.06958770751953	1441.24951171875	649.7993774414063	1121.851196289063	1270.171997070313	702.306884765625	209.0487518310547	1408.9228515625	654.0982055664063	206.4156494140625	1381.459838867188	695.4356079101563	290.4052124023438	1410.504516601563	649.4976196289063	286.8367919921875	1382.476806640625	733.0205078125	725.700439453125	1387.962646484375	669.9558715820313	722.4219360351563	1349.704345703125	721.2404174804688	835.0484619140625	1390.95458984375	663.1432495117188	832.1221923828125	1352.04345703125	778.310791015625	486.4100036621094	1330.363037109375	
135	0.8933333333333334	699.7979125976563	107.7385559082031	1032.703247070313	714.9180297851563	118.4044952392578	1120.795532226563	817.6372680664063	1081.067138671875	1094.731567382813	730.6577758789063	988.7230224609375	1049.261108398438	637.0225219726563	40.11522674560547	1081.443969726563	661.3162231445313	58.56470108032227	1040.463012695313	642.8500366210938	82.55208587646484	1082.373413085938	696.2335205078125	511.7310180664063	1055.605590820313	737.1981811523438	1157.952758789063	1061.896484375	697.0208740234375	571.4756469726563	1061.743408203125	702.0969848632813	556.4757080078125	1190.653930664063	843.9996948242188	61.08023452758789	1125.62109375	853.3038330078125	70.58989715576172	1079.466552734375	817.4638061523438	48.47550201416016	1013.090209960938	643.7881469726563	1122.0234375	1178.641723632813	692.4044189453125	211.1843719482422	1033.347045898438	649.0859375	205.3204498291016	1060.458129882813	683.6488647460938	291.3797302246094	1028.318115234375	638.5936279296875	289.3383483886719	1057.117431640625	716.0813598632813	704.5961303710938	1041.24267578125	655.6787719726563	704.1719360351563	1073.097045898438	712.3338012695313	815.0773315429688	1035.769287109375	650.7119140625	814.2855834960938	1074.702392578125	754.1192016601563	476.8583984375	1102.82421875	692.53173828125	115.0756378173828	1412.958374023438	717.0062255859375	117.8285827636719	1326.678588867188	837.7780151367188	1074.787963867188	1323.157470703125	758.40380859375	989.4533081054688	1381.332763671875	633.0818481445313	41.27346801757813	1370.19873046875	660.7716064453125	61.93795013427734	1411.321044921875	641.5907592773438	87.94788360595703	1370.330810546875	717.5393676757813	511.5790100097656	1376.05322265625	757.002197265625	1157.863403320313	1368.539306640625	719.34619140625	577.0838012695313	1369.203369140625	734.0111083984375	551.0703125	1242.592651367188	843.2427368164063	59.56014633178711	1326.489990234375	851.3595581054688	72.74900817871094	1375.453125	808.3221435546875	50.07613372802734	1441.252685546875	649.830322265625	1121.856201171875	1270.177001953125	702.305908203125	209.0534057617188	1408.9140625	654.1006469726563	206.4259338378906	1381.463989257813	695.4451904296875	290.4010314941406	1410.50048828125	649.50341796875	286.8406372070313	1382.488525390625	733.0359497070313	725.7101440429688	1387.964599609375	669.9818115234375	722.42431640625	1349.71533203125	721.2523803710938	835.0548095703125	1390.95361328125	663.1633911132813	832.1334228515625	1352.038208007813	778.3283081054688	486.4078063964844	1330.341186523438	
